<?xml version="1.0" encoding="utf-8"?>
<!-- Generator: Adobe Illustrator 19.2.0, SVG Export Plug-In . SVG Version: 6.00 Build 0)  -->
<svg version="1.1" id="Layer_1" xmlns="http://www.w3.org/2000/svg" xmlns:xlink="http://www.w3.org/1999/xlink" x="0px" y="0px"
	 viewBox="0 0 131.5 46.8" style="enable-background:new 0 0 131.5 46.8;" xml:space="preserve">
<style type="text/css">
	.st0{fill:#5ACC92;}
</style>
<g>
	<path class="st0" d="M26.5,20.1 M26.5,26.1 M33.9,26.1v4.8c0,4.5-1.5,8.1-4.4,10.8c-2.9,2.6-6.8,4-11.6,4c-4.9,0-8.8-1.3-11.6-3.9
		S2,35.4,2,30.8V2.3h7.4v28.5c0,2.9,0.7,5,2.2,6.5c1.4,1.5,3.6,2.3,6.4,2.3c5.7,0,8.6-3,8.6-9v-4.6 M33.9,26.1 M33.9,20.1
		 M26.5,20.1V2.3h7.4v17.8"/>
	<path class="st0" d="M49.2,26.1V45h-7.4V26.1 M49.2,20.1h19.1V2.3h7.4V45h-7.4V26.1H49.2 M41.8,20.1V2.3h7.4v17.8"/>
	<path class="st0" d="M115.9,34.4l6.6-32.1h7.4L120,45h-7.1l-8.1-31.1L96.5,45h-7.1L79.5,2.3h7.4l6.6,32.1l8.1-32.1h6.2L115.9,34.4z
		"/>
</g>
</svg>
